<svg version="1.1" xmlns="http://www.w3.org/2000/svg" width="32" height="32" viewBox="0 0 32 32">
<title>enter</title>
<path fill="#fff" d="M8.131 0.719c0 0.027-0.048 0.061-0.106 0.072-0.623 0.136-1.189 0.807-1.291 1.533-0.044 0.327-0.048 11.561 0 11.684l0.034 0.085 0.569-0.007 0.572-0.010 0.017-5.842c0.020-6.52-0.003-5.989 0.259-6.186l0.126-0.099 10.512-0.010c5.781-0.003 10.546 0 10.587 0.010 0.116 0.027 0.313 0.215 0.368 0.351 0.075 0.177 0.075 27.054 0.003 27.228-0.055 0.133-0.198 0.273-0.337 0.33-0.133 0.058-20.939 0.058-21.113 0.003-0.157-0.051-0.32-0.238-0.368-0.422-0.027-0.106-0.037-1.802-0.037-5.883 0-4.418-0.010-5.747-0.041-5.777-0.027-0.027-0.204-0.041-0.579-0.041-0.494 0-0.538 0.003-0.572 0.065-0.024 0.044-0.034 1.904-0.034 5.767 0 4.806 0.007 5.747 0.051 6.002 0.024 0.167 0.065 0.32 0.082 0.337 0.020 0.020 0.037 0.061 0.037 0.089s0.048 0.126 0.109 0.221c0.272 0.439 0.678 0.732 1.185 0.858 0.283 0.068 21.096 0.072 21.43 0 0.695-0.143 1.271-0.719 1.414-1.414 0.072-0.337 0.072-27.16 0-27.497-0.109-0.521-0.494-1.025-0.95-1.25-0.123-0.058-0.249-0.109-0.279-0.109-0.027 0-0.082-0.031-0.119-0.068-0.068-0.068-0.112-0.068-10.798-0.068-9.248 0-10.73 0.007-10.73 0.048z"></path>
<path fill="#fff" d="M13.786 8.734c-0.324 0.215-0.429 0.525-0.276 0.821 0.037 0.072 1.301 1.359 2.861 2.916 1.536 1.536 2.786 2.803 2.776 2.821-0.010 0.014-4.084 0.027-9.054 0.027h-9.037l-0.133 0.099c-0.208 0.146-0.252 0.238-0.252 0.504 0 0.208 0.010 0.245 0.102 0.358 0.211 0.255-0.685 0.232 9.296 0.232 5.692 0 8.996 0.014 9.030 0.034 0.041 0.027-0.528 0.61-2.749 2.834-1.536 1.543-2.821 2.851-2.851 2.913-0.072 0.14-0.068 0.371 0.007 0.521 0.072 0.143 0.29 0.303 0.46 0.33 0.307 0.048 0.16 0.181 3.982-3.638 1.945-1.945 3.536-3.56 3.536-3.59 0-0.068-7.024-7.096-7.177-7.181-0.133-0.075-0.405-0.075-0.521 0z"></path>
</svg>
